<svg width="1005" height="485" viewBox="0 0 1005 485" fill="none" xmlns="http://www.w3.org/2000/svg">
<g opacity="0.29827">
<path d="M1008.08 152.448L443.182 -367.858V-758.19L28.1096 -781C24.9043 -773.456 4.36709 -751.714 7.57176 -739.596C11.43 -725.102 30.8387 -729.735 36.4776 -720.409C43.0661 -709.42 31.7291 -664.749 28.3457 -651.86C21.8759 -627.445 7.09676 -607.665 2.82235 -583.25C-4.35982 -542.263 10.1824 -545.53 37.7242 -519.927C84.141 -476.742 46.9244 -431.952 58.6176 -381.223C68.1146 -339.878 109.605 -318.554 124.8 -277.211C136.553 -245.37 152.697 -237.233 177.746 -213.947C177.153 -228.084 164.51 -269.785 188.253 -266.102C211.817 -262.478 202.736 -227.669 207.247 -213.115C211.045 -200.997 237.933 -176.761 215.616 -165.593C208.196 -161.91 187.066 -176.582 178.577 -180.503C184.572 -161.791 180.774 -142.367 190.271 -124.487C201.608 -103.162 213.835 -111.359 228.853 -99.7754C244.344 -87.8355 242.683 -74.1137 235.797 -56.0554C228.615 -37.2247 221.196 -40.1352 232.592 -17.4434C240.843 -1.04881 254.85 19.7421 266.9 32.2164C273.904 39.4634 281.502 41.1267 288.506 50.3932C294.323 58.1155 292.067 68.2142 299.012 75.1638C310.883 87.1037 331.006 87.282 340.384 102.904C350.831 120.309 338.96 133.437 369.706 131.833C371.309 166.643 377.897 198.185 377.541 232.994C394.695 239.825 422.414 231.687 440.399 228.063C458.266 252.18 481.355 235.429 501.774 248.558C510.678 254.26 508.837 268.517 514.239 273.506C525.339 283.723 533.529 277.308 547.301 280.872C557.51 283.486 565.404 290.97 575.138 293.703C584.338 296.257 599.475 290.258 606.301 298.396C614.492 308.138 600.78 325.958 613.127 333.799C623.395 340.333 638.115 324.77 648.088 327.027C659.721 329.7 693.079 360.174 701.271 370.212C710.59 381.677 719.969 403.062 725.25 417.793C733.501 440.841 732.373 452.127 749.408 468.998C760.27 479.75 749.942 480.522 767.63 483.67C779.204 485.749 794.518 477.374 806.212 476.067C830.549 473.394 855.122 478.027 879.102 473.453C901.421 469.176 922.729 462.166 945.64 458.899C965.465 456.048 1000.37 458.246 1017.94 448.801C1036.99 438.643 1038.71 415.654 1011.17 419.932C1008.97 405.26 1018.77 385.003 1007.85 374.847C1023.04 354.056 1028.56 339.384 1030.93 313.959C1032 302.792 1032.48 290.436 1038 281.05C1043.4 271.783 1058.59 266.259 1061.56 258.299C1066.13 245.943 1058.83 240.419 1053.25 233.528C1049.69 229.073 1039.54 231.212 1036.63 227.291C1031.23 220.103 1036.57 212.678 1033.6 205.431C1024.94 184.462 1014.61 176.205 1008.08 152.444C1008.26 156.424 1008.44 160.463 1008.2 164.384" stroke="white" stroke-width="2" stroke-linecap="round" stroke-linejoin="round"/>
</g>
<path d="M729.114 72.9394C720.546 96.3208 740.614 104.526 756.675 119.807C761.434 124.336 761.888 131.817 756.879 136.342C746.107 146.074 705.264 131.917 707.854 144.745C710.53 157.994 745.061 176.531 746.618 177.799C760.284 188.932 764.735 217.174 757.208 232.658C751.852 243.676 716.342 239.962 705.172 236.293C632.024 212.266 664.985 215.131 582.817 207.67C576.527 207.099 569.935 206.806 563.894 208.65C557.671 210.549 557.869 218.339 559.957 222.55C566.876 236.506 597.849 260.178 589.514 278.523C586.956 284.152 580.963 287.707 578.264 293.27C576.151 297.627 576.385 302.772 575.445 307.523" stroke="white" stroke-width="2"/>
<path fill-rule="evenodd" clip-rule="evenodd" d="M573.5 315C577.09 315 580 312.09 580 308.5C580 304.91 577.09 302 573.5 302C569.91 302 567 304.91 567 308.5C567 312.09 569.91 315 573.5 315Z" fill="#4AF6CD"/>
<path fill-rule="evenodd" clip-rule="evenodd" d="M661 352C662.657 352 664 350.657 664 349C664 347.343 662.657 346 661 346C659.343 346 658 347.343 658 349C658 350.657 659.343 352 661 352Z" fill="#4AF6CD"/>
<path fill-rule="evenodd" clip-rule="evenodd" d="M725 460C726.657 460 728 458.657 728 457C728 455.343 726.657 454 725 454C723.343 454 722 455.343 722 457C722 458.657 723.343 460 725 460Z" fill="#4AF6CD"/>
<path fill-rule="evenodd" clip-rule="evenodd" d="M365 217C366.657 217 368 215.657 368 214C368 212.343 366.657 211 365 211C363.343 211 362 212.343 362 214C362 215.657 363.343 217 365 217Z" fill="#4AF6CD"/>
<path fill-rule="evenodd" clip-rule="evenodd" d="M729.5 80C733.09 80 736 77.0899 736 73.5C736 69.9101 733.09 67 729.5 67C725.91 67 723 69.9101 723 73.5C723 77.0899 725.91 80 729.5 80Z" fill="#4AF6CD"/>
<path d="M398.41 299.976L396.17 311H394.218L392.186 301.768L390.138 311H388.234L385.994 299.976H387.482L389.258 309.672L391.386 299.976H393.002L395.178 309.672L397.018 299.976H398.41ZM406.544 306.536C406.544 306.781 406.534 307.032 406.512 307.288H401.136C401.2 308.216 401.435 308.899 401.84 309.336C402.246 309.773 402.768 309.992 403.408 309.992C403.814 309.992 404.187 309.933 404.528 309.816C404.87 309.699 405.227 309.512 405.6 309.256L406.24 310.136C405.344 310.84 404.363 311.192 403.296 311.192C402.123 311.192 401.206 310.808 400.544 310.04C399.894 309.272 399.568 308.216 399.568 306.872C399.568 305.997 399.707 305.224 399.984 304.552C400.272 303.869 400.678 303.336 401.2 302.952C401.734 302.568 402.358 302.376 403.072 302.376C404.192 302.376 405.051 302.744 405.648 303.48C406.246 304.216 406.544 305.235 406.544 306.536ZM405.088 306.104C405.088 305.272 404.923 304.637 404.592 304.2C404.262 303.763 403.766 303.544 403.104 303.544C401.899 303.544 401.243 304.429 401.136 306.2H405.088V306.104ZM411.183 302.376C411.759 302.376 412.276 302.456 412.735 302.616C413.194 302.776 413.631 303.016 414.047 303.336L413.423 304.264C413.039 304.019 412.671 303.837 412.319 303.72C411.978 303.603 411.615 303.544 411.231 303.544C410.751 303.544 410.372 303.645 410.095 303.848C409.818 304.04 409.679 304.307 409.679 304.648C409.679 304.989 409.807 305.256 410.063 305.448C410.33 305.64 410.804 305.827 411.487 306.008C412.426 306.243 413.124 306.563 413.583 306.968C414.052 307.373 414.287 307.928 414.287 308.632C414.287 309.464 413.962 310.099 413.311 310.536C412.671 310.973 411.887 311.192 410.959 311.192C409.679 311.192 408.618 310.824 407.775 310.088L408.559 309.192C409.274 309.736 410.063 310.008 410.927 310.008C411.482 310.008 411.919 309.896 412.239 309.672C412.57 309.437 412.735 309.123 412.735 308.728C412.735 308.44 412.676 308.211 412.559 308.04C412.442 307.859 412.239 307.704 411.951 307.576C411.663 307.437 411.242 307.293 410.687 307.144C409.791 306.909 409.14 306.595 408.735 306.2C408.34 305.805 408.143 305.304 408.143 304.696C408.143 304.259 408.271 303.864 408.527 303.512C408.794 303.149 409.156 302.872 409.615 302.68C410.084 302.477 410.607 302.376 411.183 302.376ZM420.62 310.616C420.065 311 419.436 311.192 418.732 311.192C418.017 311.192 417.457 310.989 417.052 310.584C416.657 310.168 416.46 309.571 416.46 308.792V303.704H414.988V302.568H416.46V300.664L417.932 300.488V302.568H419.932L419.772 303.704H417.932V308.728C417.932 309.165 418.006 309.485 418.156 309.688C418.316 309.88 418.577 309.976 418.94 309.976C419.27 309.976 419.644 309.864 420.06 309.64L420.62 310.616ZM429.179 299.784C429.915 299.784 430.545 299.891 431.067 300.104C431.59 300.307 432.097 300.627 432.587 301.064L431.755 301.992C431.339 301.661 430.929 301.421 430.523 301.272C430.129 301.112 429.702 301.032 429.243 301.032C428.667 301.032 428.193 301.165 427.819 301.432C427.446 301.699 427.259 302.088 427.259 302.6C427.259 302.92 427.323 303.192 427.451 303.416C427.579 303.629 427.814 303.827 428.155 304.008C428.507 304.189 429.014 304.381 429.675 304.584C430.369 304.797 430.945 305.027 431.403 305.272C431.862 305.517 432.23 305.859 432.507 306.296C432.795 306.723 432.939 307.267 432.939 307.928C432.939 308.568 432.779 309.133 432.459 309.624C432.15 310.115 431.697 310.499 431.099 310.776C430.513 311.053 429.814 311.192 429.003 311.192C427.478 311.192 426.23 310.717 425.259 309.768L426.091 308.84C426.539 309.203 426.993 309.48 427.451 309.672C427.91 309.853 428.422 309.944 428.987 309.944C429.67 309.944 430.235 309.779 430.683 309.448C431.131 309.107 431.355 308.616 431.355 307.976C431.355 307.613 431.286 307.315 431.147 307.08C431.009 306.835 430.769 306.616 430.427 306.424C430.097 306.232 429.611 306.04 428.971 305.848C427.841 305.507 427.014 305.096 426.491 304.616C425.969 304.136 425.707 303.485 425.707 302.664C425.707 302.109 425.851 301.613 426.139 301.176C426.438 300.739 426.849 300.397 427.371 300.152C427.905 299.907 428.507 299.784 429.179 299.784ZM439.066 302.376C439.834 302.376 440.431 302.605 440.858 303.064C441.295 303.523 441.514 304.152 441.514 304.952V311H440.042V305.16C440.042 304.563 439.925 304.141 439.69 303.896C439.466 303.651 439.135 303.528 438.698 303.528C438.261 303.528 437.871 303.656 437.53 303.912C437.189 304.168 436.869 304.531 436.57 305V311H435.098V299.192L436.57 299.032V303.736C437.231 302.829 438.063 302.376 439.066 302.376ZM447.641 302.376C448.825 302.376 449.742 302.771 450.393 303.56C451.054 304.349 451.385 305.421 451.385 306.776C451.385 307.651 451.236 308.424 450.937 309.096C450.638 309.757 450.206 310.275 449.641 310.648C449.076 311.011 448.404 311.192 447.625 311.192C446.441 311.192 445.518 310.797 444.857 310.008C444.196 309.219 443.865 308.147 443.865 306.792C443.865 305.917 444.014 305.149 444.313 304.488C444.612 303.816 445.044 303.299 445.609 302.936C446.174 302.563 446.852 302.376 447.641 302.376ZM447.641 303.56C446.18 303.56 445.449 304.637 445.449 306.792C445.449 308.936 446.174 310.008 447.625 310.008C449.076 310.008 449.801 308.931 449.801 306.776C449.801 304.632 449.081 303.56 447.641 303.56ZM457.481 302.376C457.78 302.376 458.057 302.408 458.313 302.472L458.041 303.912C457.785 303.848 457.54 303.816 457.305 303.816C456.782 303.816 456.361 304.008 456.041 304.392C455.721 304.776 455.47 305.373 455.289 306.184V311H453.817V302.568H455.081L455.225 304.28C455.449 303.651 455.753 303.176 456.137 302.856C456.521 302.536 456.969 302.376 457.481 302.376ZM465.872 306.536C465.872 306.781 465.862 307.032 465.84 307.288H460.464C460.528 308.216 460.763 308.899 461.168 309.336C461.574 309.773 462.096 309.992 462.736 309.992C463.142 309.992 463.515 309.933 463.856 309.816C464.198 309.699 464.555 309.512 464.928 309.256L465.568 310.136C464.672 310.84 463.691 311.192 462.624 311.192C461.451 311.192 460.534 310.808 459.872 310.04C459.222 309.272 458.896 308.216 458.896 306.872C458.896 305.997 459.035 305.224 459.312 304.552C459.6 303.869 460.006 303.336 460.528 302.952C461.062 302.568 461.686 302.376 462.4 302.376C463.52 302.376 464.379 302.744 464.976 303.48C465.574 304.216 465.872 305.235 465.872 306.536ZM464.416 306.104C464.416 305.272 464.251 304.637 463.92 304.2C463.59 303.763 463.094 303.544 462.432 303.544C461.227 303.544 460.571 304.429 460.464 306.2H464.416V306.104ZM474.41 298.184V312.568H474.058V298.184H474.41ZM493.237 311H491.765L491.381 306.024C491.221 304.072 491.131 302.573 491.109 301.528L488.725 309.752H487.301L484.789 301.512C484.789 302.845 484.72 304.387 484.581 306.136L484.213 311H482.773L483.685 299.976H485.733L488.053 307.992L490.261 299.976H492.325L493.237 311ZM501.434 309.032C501.434 309.373 501.493 309.629 501.61 309.8C501.728 309.96 501.904 310.083 502.138 310.168L501.802 311.192C501.365 311.139 501.013 311.016 500.746 310.824C500.48 310.632 500.282 310.333 500.154 309.928C499.589 310.771 498.752 311.192 497.642 311.192C496.81 311.192 496.154 310.957 495.674 310.488C495.194 310.019 494.954 309.405 494.954 308.648C494.954 307.752 495.274 307.064 495.914 306.584C496.565 306.104 497.482 305.864 498.666 305.864H499.962V305.24C499.962 304.643 499.818 304.216 499.53 303.96C499.242 303.704 498.8 303.576 498.202 303.576C497.584 303.576 496.826 303.725 495.93 304.024L495.562 302.952C496.608 302.568 497.578 302.376 498.474 302.376C499.466 302.376 500.208 302.621 500.698 303.112C501.189 303.592 501.434 304.28 501.434 305.176V309.032ZM497.978 310.088C498.821 310.088 499.482 309.651 499.962 308.776V306.84H498.858C497.301 306.84 496.522 307.416 496.522 308.568C496.522 309.069 496.645 309.448 496.89 309.704C497.136 309.96 497.498 310.088 497.978 310.088ZM505.981 311.192C505.437 311.192 505.005 311.032 504.685 310.712C504.376 310.381 504.221 309.923 504.221 309.336V299.176L505.693 299V309.304C505.693 309.539 505.731 309.709 505.805 309.816C505.891 309.923 506.029 309.976 506.221 309.976C506.424 309.976 506.605 309.944 506.765 309.88L507.149 310.904C506.797 311.096 506.408 311.192 505.981 311.192ZM510.461 302.568V311H508.989V302.568H510.461ZM509.709 298.52C510.018 298.52 510.269 298.616 510.461 298.808C510.653 299 510.749 299.24 510.749 299.528C510.749 299.816 510.653 300.056 510.461 300.248C510.269 300.429 510.018 300.52 509.709 300.52C509.41 300.52 509.165 300.429 508.973 300.248C508.781 300.056 508.685 299.816 508.685 299.528C508.685 299.24 508.781 299 508.973 298.808C509.165 298.616 509.41 298.52 509.709 298.52ZM517.36 302.376C518.32 302.376 519.083 302.765 519.648 303.544C520.214 304.312 520.496 305.389 520.496 306.776C520.496 307.651 520.363 308.424 520.096 309.096C519.83 309.757 519.446 310.275 518.944 310.648C518.443 311.011 517.856 311.192 517.184 311.192C516.299 311.192 515.552 310.819 514.944 310.072L514.8 311H513.504V299.176L514.976 299V303.624C515.584 302.792 516.379 302.376 517.36 302.376ZM516.832 310.024C517.483 310.024 517.99 309.763 518.352 309.24C518.726 308.707 518.912 307.885 518.912 306.776C518.912 305.635 518.742 304.813 518.4 304.312C518.059 303.8 517.574 303.544 516.944 303.544C516.198 303.544 515.542 303.981 514.976 304.856V308.888C515.2 309.24 515.472 309.517 515.792 309.72C516.123 309.923 516.47 310.024 516.832 310.024ZM529.276 311H528.012L527.9 309.688C527.58 310.211 527.212 310.595 526.796 310.84C526.38 311.075 525.874 311.192 525.276 311.192C524.54 311.192 523.964 310.968 523.548 310.52C523.132 310.072 522.924 309.437 522.924 308.616V302.568H524.396V308.456C524.396 309.032 524.498 309.443 524.7 309.688C524.903 309.923 525.234 310.04 525.692 310.04C526.514 310.04 527.218 309.555 527.804 308.584V302.568H529.276V311ZM532.701 308.968C533.021 308.968 533.288 309.075 533.501 309.288C533.714 309.501 533.821 309.763 533.821 310.072C533.821 310.403 533.725 310.781 533.533 311.208L532.461 313.656H531.405L532.045 311C531.906 310.893 531.794 310.76 531.709 310.6C531.634 310.44 531.597 310.264 531.597 310.072C531.597 309.763 531.704 309.501 531.917 309.288C532.13 309.075 532.392 308.968 532.701 308.968ZM544.331 299.784C544.992 299.784 545.547 299.869 545.995 300.04C546.454 300.211 546.918 300.488 547.387 300.872L546.555 301.848C545.883 301.304 545.174 301.032 544.427 301.032C543.51 301.032 542.768 301.384 542.203 302.088C541.648 302.792 541.371 303.923 541.371 305.48C541.371 306.995 541.648 308.115 542.203 308.84C542.758 309.555 543.494 309.912 544.411 309.912C544.88 309.912 545.291 309.832 545.643 309.672C545.995 309.512 546.368 309.288 546.763 309L547.515 309.96C547.174 310.312 546.736 310.605 546.203 310.84C545.67 311.075 545.056 311.192 544.363 311.192C543.467 311.192 542.667 310.973 541.963 310.536C541.27 310.088 540.726 309.437 540.331 308.584C539.947 307.72 539.755 306.685 539.755 305.48C539.755 304.275 539.958 303.245 540.363 302.392C540.768 301.528 541.318 300.877 542.011 300.44C542.704 300.003 543.478 299.784 544.331 299.784ZM555.3 311L554.468 308.232H550.292L549.46 311H547.924L551.46 299.976H553.38L556.9 311H555.3ZM550.66 307H554.1L552.388 301.24L550.66 307Z" fill="white"/>
<path d="M598.378 64.784C599.039 64.784 599.594 64.8693 600.042 65.04C600.501 65.2107 600.965 65.488 601.434 65.872L600.602 66.848C599.93 66.304 599.221 66.032 598.474 66.032C597.557 66.032 596.815 66.384 596.25 67.088C595.695 67.792 595.418 68.9227 595.418 70.48C595.418 71.9947 595.695 73.1147 596.25 73.84C596.805 74.5547 597.541 74.912 598.458 74.912C598.927 74.912 599.338 74.832 599.69 74.672C600.042 74.512 600.415 74.288 600.81 74L601.562 74.96C601.221 75.312 600.783 75.6053 600.25 75.84C599.717 76.0747 599.103 76.192 598.41 76.192C597.514 76.192 596.714 75.9733 596.01 75.536C595.317 75.088 594.773 74.4373 594.378 73.584C593.994 72.72 593.802 71.6853 593.802 70.48C593.802 69.2747 594.005 68.2453 594.41 67.392C594.815 66.528 595.365 65.8773 596.058 65.44C596.751 65.0027 597.525 64.784 598.378 64.784ZM609.401 76H608.137L608.025 74.688C607.705 75.2107 607.337 75.5947 606.921 75.84C606.505 76.0747 605.999 76.192 605.401 76.192C604.665 76.192 604.089 75.968 603.673 75.52C603.257 75.072 603.049 74.4373 603.049 73.616V67.568H604.521V73.456C604.521 74.032 604.623 74.4427 604.825 74.688C605.028 74.9227 605.359 75.04 605.817 75.04C606.639 75.04 607.343 74.5547 607.929 73.584V67.568H609.401V76ZM616.106 67.376C616.405 67.376 616.682 67.408 616.938 67.472L616.666 68.912C616.41 68.848 616.165 68.816 615.93 68.816C615.407 68.816 614.986 69.008 614.666 69.392C614.346 69.776 614.095 70.3733 613.914 71.184V76H612.442V67.568H613.706L613.85 69.28C614.074 68.6507 614.378 68.176 614.762 67.856C615.146 67.536 615.594 67.376 616.106 67.376ZM622.278 67.376C622.576 67.376 622.854 67.408 623.11 67.472L622.838 68.912C622.582 68.848 622.336 68.816 622.102 68.816C621.579 68.816 621.158 69.008 620.838 69.392C620.518 69.776 620.267 70.3733 620.086 71.184V76H618.614V67.568H619.878L620.022 69.28C620.246 68.6507 620.55 68.176 620.934 67.856C621.318 67.536 621.766 67.376 622.278 67.376ZM630.669 71.536C630.669 71.7813 630.659 72.032 630.637 72.288H625.261C625.325 73.216 625.56 73.8987 625.965 74.336C626.371 74.7733 626.893 74.992 627.533 74.992C627.939 74.992 628.312 74.9333 628.653 74.816C628.995 74.6987 629.352 74.512 629.725 74.256L630.365 75.136C629.469 75.84 628.488 76.192 627.421 76.192C626.248 76.192 625.331 75.808 624.669 75.04C624.019 74.272 623.693 73.216 623.693 71.872C623.693 70.9973 623.832 70.224 624.109 69.552C624.397 68.8693 624.803 68.336 625.325 67.952C625.859 67.568 626.483 67.376 627.197 67.376C628.317 67.376 629.176 67.744 629.773 68.48C630.371 69.216 630.669 70.2347 630.669 71.536ZM629.213 71.104C629.213 70.272 629.048 69.6373 628.717 69.2C628.387 68.7627 627.891 68.544 627.229 68.544C626.024 68.544 625.368 69.4293 625.261 71.2H629.213V71.104ZM636.988 67.376C637.756 67.376 638.353 67.6053 638.78 68.064C639.217 68.5227 639.436 69.152 639.436 69.952V76H637.964V70.16C637.964 69.5627 637.852 69.1413 637.628 68.896C637.404 68.6507 637.073 68.528 636.636 68.528C636.188 68.528 635.793 68.656 635.452 68.912C635.111 69.168 634.791 69.536 634.492 70.016V76H633.02V67.568H634.284L634.412 68.816C634.711 68.368 635.079 68.016 635.516 67.76C635.964 67.504 636.455 67.376 636.988 67.376ZM646.651 75.616C646.096 76 645.467 76.192 644.763 76.192C644.048 76.192 643.488 75.9893 643.083 75.584C642.688 75.168 642.491 74.5707 642.491 73.792V68.704H641.019V67.568H642.491V65.664L643.963 65.488V67.568H645.963L645.803 68.704H643.963V73.728C643.963 74.1653 644.038 74.4853 644.187 74.688C644.347 74.88 644.608 74.976 644.971 74.976C645.302 74.976 645.675 74.864 646.091 74.64L646.651 75.616ZM654.011 64.976V74.672H658.539L658.363 76H652.491V64.976H654.011ZM663.141 67.376C664.325 67.376 665.242 67.7707 665.893 68.56C666.554 69.3493 666.885 70.4213 666.885 71.776C666.885 72.6507 666.736 73.424 666.437 74.096C666.138 74.7573 665.706 75.2747 665.141 75.648C664.576 76.0107 663.904 76.192 663.125 76.192C661.941 76.192 661.018 75.7973 660.357 75.008C659.696 74.2187 659.365 73.1467 659.365 71.792C659.365 70.9173 659.514 70.1493 659.813 69.488C660.112 68.816 660.544 68.2987 661.109 67.936C661.674 67.5627 662.352 67.376 663.141 67.376ZM663.141 68.56C661.68 68.56 660.949 69.6373 660.949 71.792C660.949 73.936 661.674 75.008 663.125 75.008C664.576 75.008 665.301 73.9307 665.301 71.776C665.301 69.632 664.581 68.56 663.141 68.56ZM672.389 67.376C672.89 67.376 673.349 67.4507 673.765 67.6C674.181 67.7387 674.581 67.968 674.965 68.288L674.261 69.216C673.962 69.0027 673.669 68.848 673.381 68.752C673.104 68.6453 672.794 68.592 672.453 68.592C671.77 68.592 671.237 68.864 670.853 69.408C670.48 69.952 670.293 70.7573 670.293 71.824C670.293 72.8907 670.48 73.68 670.853 74.192C671.226 74.6933 671.76 74.944 672.453 74.944C672.784 74.944 673.088 74.896 673.365 74.8C673.642 74.6933 673.952 74.528 674.293 74.304L674.965 75.264C674.197 75.8827 673.338 76.192 672.389 76.192C671.248 76.192 670.346 75.808 669.685 75.04C669.034 74.272 668.709 73.2107 668.709 71.856C668.709 70.96 668.858 70.176 669.157 69.504C669.456 68.832 669.877 68.3093 670.421 67.936C670.976 67.5627 671.632 67.376 672.389 67.376ZM682.481 74.032C682.481 74.3733 682.54 74.6293 682.657 74.8C682.775 74.96 682.951 75.0827 683.185 75.168L682.849 76.192C682.412 76.1387 682.06 76.016 681.793 75.824C681.527 75.632 681.329 75.3333 681.201 74.928C680.636 75.7707 679.799 76.192 678.689 76.192C677.857 76.192 677.201 75.9573 676.721 75.488C676.241 75.0187 676.001 74.4053 676.001 73.648C676.001 72.752 676.321 72.064 676.961 71.584C677.612 71.104 678.529 70.864 679.713 70.864H681.009V70.24C681.009 69.6427 680.865 69.216 680.577 68.96C680.289 68.704 679.847 68.576 679.249 68.576C678.631 68.576 677.873 68.7253 676.977 69.024L676.609 67.952C677.655 67.568 678.625 67.376 679.521 67.376C680.513 67.376 681.255 67.6213 681.745 68.112C682.236 68.592 682.481 69.28 682.481 70.176V74.032ZM679.025 75.088C679.868 75.088 680.529 74.6507 681.009 73.776V71.84H679.905C678.348 71.84 677.569 72.416 677.569 73.568C677.569 74.0693 677.692 74.448 677.937 74.704C678.183 74.96 678.545 75.088 679.025 75.088ZM689.76 75.616C689.206 76 688.576 76.192 687.872 76.192C687.158 76.192 686.598 75.9893 686.192 75.584C685.798 75.168 685.6 74.5707 685.6 73.792V68.704H684.128V67.568H685.6V65.664L687.072 65.488V67.568H689.072L688.912 68.704H687.072V73.728C687.072 74.1653 687.147 74.4853 687.296 74.688C687.456 74.88 687.718 74.976 688.08 74.976C688.411 74.976 688.784 74.864 689.2 74.64L689.76 75.616ZM692.758 67.568V76H691.286V67.568H692.758ZM692.006 63.52C692.315 63.52 692.566 63.616 692.758 63.808C692.95 64 693.046 64.24 693.046 64.528C693.046 64.816 692.95 65.056 692.758 65.248C692.566 65.4293 692.315 65.52 692.006 65.52C691.707 65.52 691.462 65.4293 691.27 65.248C691.078 65.056 690.982 64.816 690.982 64.528C690.982 64.24 691.078 64 691.27 63.808C691.462 63.616 691.707 63.52 692.006 63.52ZM698.969 67.376C700.153 67.376 701.071 67.7707 701.721 68.56C702.383 69.3493 702.713 70.4213 702.713 71.776C702.713 72.6507 702.564 73.424 702.265 74.096C701.967 74.7573 701.535 75.2747 700.969 75.648C700.404 76.0107 699.732 76.192 698.953 76.192C697.769 76.192 696.847 75.7973 696.185 75.008C695.524 74.2187 695.193 73.1467 695.193 71.792C695.193 70.9173 695.343 70.1493 695.641 69.488C695.94 68.816 696.372 68.2987 696.937 67.936C697.503 67.5627 698.18 67.376 698.969 67.376ZM698.969 68.56C697.508 68.56 696.777 69.6373 696.777 71.792C696.777 73.936 697.503 75.008 698.953 75.008C700.404 75.008 701.129 73.9307 701.129 71.776C701.129 69.632 700.409 68.56 698.969 68.56ZM709.113 67.376C709.881 67.376 710.478 67.6053 710.905 68.064C711.342 68.5227 711.561 69.152 711.561 69.952V76H710.089V70.16C710.089 69.5627 709.977 69.1413 709.753 68.896C709.529 68.6507 709.198 68.528 708.761 68.528C708.313 68.528 707.918 68.656 707.577 68.912C707.236 69.168 706.916 69.536 706.617 70.016V76H705.145V67.568H706.409L706.537 68.816C706.836 68.368 707.204 68.016 707.641 67.76C708.089 67.504 708.58 67.376 709.113 67.376Z" fill="white"/>
</svg>
